<?xml version="1.0" encoding="UTF-8" standalone="no"?>
<!-- Created with Inkscape (http://www.inkscape.org/) -->

<svg
   xmlns="http://www.w3.org/2000/svg"
   version="1.1"
   id="svg10"
   viewBox="0 0 252 86.666664"
   sodipodi:docname="4_Grayscale_logo_on_transparent_189x65.svg"
   inkscape:version="0.92.0 r15299">
  <metadata
     id="metadata16">
    <rdf:RDF>
      <cc:Work
         rdf:about="">
        <dc:format>image/svg+xml</dc:format>
        <dc:type
           rdf:resource="http://purl.org/dc/dcmitype/StillImage" />
        <dc:title></dc:title>
      </cc:Work>
    </rdf:RDF>
  </metadata>
  <defs
     id="defs14" />
  <sodipodi:namedview
     pagecolor="#ffffff"
     bordercolor="#666666"
     borderopacity="1"
     objecttolerance="10"
     gridtolerance="10"
     guidetolerance="10"
     inkscape:pageopacity="0"
     inkscape:pageshadow="2"
     inkscape:window-width="1280"
     inkscape:window-height="962"
     id="namedview12"
     showgrid="false"
     inkscape:zoom="4.5396825"
     inkscape:cx="126"
     inkscape:cy="21.572809"
     inkscape:window-x="-8"
     inkscape:window-y="-8"
     inkscape:window-maximized="1"
     inkscape:current-layer="svg10" />
  <path
     style="fill:#202020;stroke-width:1.33333325"
     d="m 96.233092,64.791971 c 0,-10.17487 -0.542692,-16.92337 -1.403714,-17.45552 -2.487623,-1.53743 -0.486971,-3.94839 3.514825,-4.23567 2.138887,-0.15355 6.104527,-0.66518 8.812537,-1.13696 4.14816,-0.72269 5.46067,-0.32076 8.33333,2.5519 2.89945,2.89945 3.40969,4.60651 3.40969,11.40756 0,13.18622 -3.45813,17.2883 -13.3504,15.83642 -3.82966,-0.56207 -3.98293,-0.38821 -3.98293,4.51784 0,4.21352 -0.46456,5.10241 -2.666671,5.10241 -2.523769,0 -2.666667,-0.88889 -2.666667,-16.58798 z m 15.848738,2.04302 c 2.43807,-1.54403 3.5477,-13.60009 1.58864,-17.26062 -1.88971,-3.53097 -10.0206,-4.07234 -11.29473,-0.75203 -1.41914,3.69822 -0.86882,15.96477 0.79069,17.62428 1.86928,1.86928 6.27399,2.06116 8.9154,0.38837 z m -71.849619,1.57434 c -2.658752,-3.38006 -2.830615,-4.89735 -2.430107,-21.45421 0.407843,-16.860109 0.600027,-17.953626 3.5787,-20.362706 1.731242,-1.400186 5.114771,-2.545794 7.518955,-2.545794 5.187807,0 10.515657,3.839205 8.875255,6.395437 -0.887739,1.38336 -1.906944,1.271041 -5.101104,-0.562156 -8.619694,-4.947024 -11.539758,0.757538 -10.867143,21.229769 0.497061,15.12898 1.234883,16.87228 7.159659,16.91653 4.614898,0.0345 5.933333,-2.6811 5.933333,-12.22084 0,-8.53203 -0.187745,-9.08839 -3.333333,-9.87788 -4.752391,-1.19278 -4.28326,-4.54753 0.635929,-4.54753 6.181207,0 8.447672,4.61358 7.810044,15.89801 -0.657285,11.63233 -3.040539,14.76866 -11.222516,14.76866 -4.615207,0 -6.239693,-0.69046 -8.557672,-3.63729 z m 26.025713,0.99806 c -1.497869,-1.65513 -2.388468,-4.7278 -2.388468,-8.24049 0,-7.04338 3.682796,-10.45361 11.289126,-10.45361 3.640298,0 5.12563,-0.52122 4.749606,-1.66667 -0.727716,-2.21678 -8.693393,-2.92131 -11.037121,-0.97619 -1.909473,1.58472 -4.637975,0.76017 -4.637975,-1.40159 0,-1.83696 7.393335,-5.28889 11.327727,-5.28889 1.903084,0 4.93288,1.47273 6.73288,3.27273 2.795371,2.79537 3.272727,4.52186 3.272727,11.83674 0,6.01689 0.599733,9.06175 2.016441,10.23751 1.54326,1.28079 1.658189,2.10517 0.489761,3.51304 -1.002992,1.20853 -2.053041,1.40269 -3.061158,0.56603 -0.949663,-0.78815 -2.279672,-0.8022 -3.489762,-0.0369 -3.621196,2.29028 -12.691025,1.48112 -15.263784,-1.36175 z m 13.213263,-3.45601 c 4.227237,-4.22724 1.066409,-11.23809 -5.066667,-11.23809 -3.935689,0 -6.171428,2.41515 -6.171428,6.66666 0,1.90667 0.72,4.18667 1.6,5.06667 2.243666,2.24366 7.151366,1.99149 9.638095,-0.49524 z m 46.095243,3.42857 c -3.63221,-3.63221 -3.85476,-19.58423 -0.33334,-23.89284 3.52052,-4.30749 10.83154,-5.00559 15.33375,-1.46415 3.41153,2.6835 3.66625,3.57194 3.66625,12.7871 0,12.03103 -2.2441,15.23656 -10.66666,15.23656 -3.55556,0 -6.22223,-0.88889 -8,-2.66667 z m 13.28642,-3.91234 c 1.50618,-2.81432 1.86491,-13.2732 0.57092,-16.64527 -0.96824,-2.5232 -8.55627,-2.87679 -10.92401,-0.50905 -1.96194,1.96194 -2.11129,13.61996 -0.21975,17.15432 0.88242,1.64882 2.7891,2.57901 5.28642,2.57901 2.49731,0 4.40399,-0.93019 5.28642,-2.57901 z m 13.38024,-4.17531 c 0,-5.91488 -0.62774,-11.92728 -1.39498,-13.36089 -1.62027,-3.02749 -0.3553,-6.16841 1.66898,-4.14412 0.85294,0.85292 2.53619,0.6647 4.84952,-0.54227 4.33055,-2.25946 7.05239,-2.33526 11.47632,-0.31958 4.2212,1.92331 6.04938,7.99403 6.05939,20.12118 0.007,8.11359 -0.2552,9 -2.65923,9 -2.44214,0 -2.66666,-0.88889 -2.66666,-10.55762 0,-13.49826 -0.52702,-14.77571 -6.09575,-14.77571 -5.94377,0 -7.23759,2.72536 -7.23759,15.24567 0,8.07792 -0.39845,10.08766 -2,10.08766 -1.61246,0 -2,-2.08381 -2,-10.75432 z m 28.64798,8.06699 c -3.34704,-3.69843 -4.18411,-15.31738 -1.55659,-21.60595 1.66807,-3.99223 2.92647,-5.04764 6.90944,-5.79484 9.76072,-1.83113 13.99917,3.01162 13.99917,15.99511 0,9.8082 -3.41236,14.09301 -11.22345,14.09301 -4.01785,0 -6.41327,-0.79193 -8.12857,-2.68733 z m 12.49722,-2.50151 c 2.42199,-1.53459 3.44655,-11.87991 1.63988,-16.55845 -1.27892,-3.31189 -2.02829,-3.6992 -6.4494,-3.33334 l -5.00234,0.41396 -0.39998,8.44975 c -0.24056,5.08187 0.2231,9.2005 1.16326,10.33333 1.74349,2.10078 6.27978,2.44907 9.04858,0.69475 z m 17.72238,3.43091 c -1.51308,-1.82314 -6.8418,-22.47178 -6.85823,-26.5754 -0.005,-1.28334 0.77256,-2.33334 1.72821,-2.33334 1.09164,0 2.87274,4.70874 4.79122,12.66667 1.67949,6.96667 3.47949,12.66667 4,12.66667 0.52049,0 2.32049,-5.7 4,-12.66667 2.06102,-8.54924 3.66328,-12.66667 4.92909,-12.66667 1.03151,0 1.87547,0.95003 1.87547,2.11119 0,3.01566 -5.28159,23.30076 -6.81067,26.15787 -1.50409,2.81042 -5.57147,3.1503 -7.65509,0.63968 z M 26.170824,20.938747 C 19.340607,18.768006 16.945367,10.723594 21.482892,5.1943331 c 2.064234,-2.515399 3.052693,-2.860736 4.920642,-1.719121 1.285629,0.785725 2.568897,2.285725 2.851708,3.333333 0.421505,1.561378 0.286832,1.580646 -0.747078,0.106885 -1.642105,-2.340697 -6.125988,-1.453306 -6.659693,1.317999 -0.228384,1.185902 0.556394,3.1278219 1.74395,4.3153789 2.604602,2.604601 5.356402,1.454156 13.110474,-5.4810969 3.890335,-3.479522 5.831175,-4.365905 8,-3.653606 3.632683,1.193068 7.420492,1.196048 11.027215,0.0087 2.193641,-0.72217 4.378248,0.442969 9.711173,5.179362 7.5459,6.7018279 8.374397,7.0239479 10.738651,4.1751959 2.460745,-2.9650169 1.11317,-6.7481899 -2.358386,-6.6209179 -3.42104,0.12542 -3.211166,-2.54824 0.252752,-3.219901 4.302239,-0.834213 6.49698,2.519899 5.784582,8.8402819 -0.793608,7.040869 -1.757882,8.134353 -8.077506,9.159887 -3.938301,0.639098 -5.979213,0.07127 -10.502296,-2.921961 -7.428782,-4.916136 -14.290217,-4.820228 -23.847397,0.333336 -6.061641,3.268648 -7.840188,3.677821 -11.260859,2.590683 z"
     id="path20"
     inkscape:connector-curvature="0" />
</svg>
